<?xml version="1.0" encoding="UTF-8"?><svg xmlns="http://www.w3.org/2000/svg" viewBox="0 0 165.97 174"><defs><style>.e{fill:#3f66c9;}.f{fill:#19313e;}</style></defs><g id="a"/><g id="b"><g id="c"><g id="d"><path class="e" d="M155.85,141h-12.21c-1.14,0-2.08,.93-2.08,2.08v3.63c0,1.15,.93,2.08,2.08,2.08h12.21c5.59,0,10.13-4.54,10.13-10.13V10.13c0-5.59-4.54-10.13-10.13-10.13H49.12c-5.59,0-10.13,4.54-10.13,10.13v12.46c0,.86,.69,1.56,1.56,1.56h4.67c.86,0,1.56-.7,1.56-1.56V10.13c0-1.29,1.05-2.34,2.34-2.34h106.73c1.29,0,2.34,1.05,2.34,2.34V138.67c0,1.29-1.05,2.34-2.34,2.34h0Z"/><path class="e" d="M125.98,170.87c0,1.73-1.4,3.13-3.12,3.13H3.13c-1.73,0-3.13-1.4-3.13-3.13V42.86c0-1.73,1.4-3.13,3.13-3.13H122.86c1.72,0,3.12,1.4,3.12,3.13V170.87h0Z"/><path class="f" d="M88.13,71.61H47.09c-1.75,0-3.16-1.74-3.16-3.9s1.42-3.9,3.16-3.9h41.04c1.75,0,3.17,1.74,3.17,3.9s-1.42,3.9-3.17,3.9h0Zm-55.25-2.94c0,1.58-1.28,2.86-2.86,2.86h-5.97c-1.58,0-2.86-1.28-2.86-2.86v-2.6c0-1.58,1.28-2.86,2.86-2.86h5.97c1.58,0,2.86,1.28,2.86,2.86v2.6h0Zm82.45-21.15H10.66c-1.59,0-2.87,1.29-2.87,2.87v112.96c0,1.58,1.28,2.87,2.87,2.87H115.33c1.58,0,2.86-1.29,2.86-2.87V50.39c0-1.58-1.28-2.87-2.86-2.87h0Z"/></g></g></g></svg>